<svg id="visual" viewBox="0 0 960 540" width="960" height="540" xmlns="http://www.w3.org/2000/svg" xmlns:xlink="http://www.w3.org/1999/xlink" version="1.1"><path d="M815 540L825 0L960 0L960 540Z" fill="#c4dfff"></path><path d="M805 540L825 0L826 0L816 540Z" fill="#cae2ff"></path><path d="M738 540L796 0L826 0L806 540Z" fill="#cfe5ff"></path><path d="M700 540L777 0L797 0L739 540Z" fill="#d4e8ff"></path><path d="M613 540L642 0L778 0L701 540Z" fill="#daebff"></path><path d="M412 540L402 0L643 0L614 540Z" fill="#dfeeff"></path><path d="M325 540L335 0L403 0L413 540Z" fill="#e5f0ff"></path><path d="M277 540L306 0L336 0L326 540Z" fill="#eaf3ff"></path><path d="M220 540L258 0L307 0L278 540Z" fill="#eff6ff"></path><path d="M85 540L172 0L259 0L221 540Z" fill="#f5f9ff"></path><path d="M57 540L76 0L173 0L86 540Z" fill="#fafcff"></path><path d="M0 540L0 0L77 0L58 540Z" fill="#ffffff"></path></svg>